#Comment line ignore any data following # character 
#Hierarchical Translation and Rotation (.htr) file 
[Header]	
#Header keywords are followed by a single value 
FileType HTR		#Single word string
DataType HTRS		#Translation followed by rotation and scale data
FileVersion 1		#integer
NumSegments 84		#integer
NumFrames 2		#integer
DataFrameRate 30		#integer, data frame rate in this file
EulerRotationOrder ZYX
CalibrationUnits mm
RotationUnits Degrees
GlobalAxisofGravity Y
BoneLengthAxis Y
ScaleFactor 1.00
[SegmentNames&Hierarchy]
#CHILD	PARENT
MASTER GLOBAL
root MASTER
chest root
L_mid_tent01 root
R_mid_tent01 root
spine01 root
Bip01_Neck chest
L_humerus chest
R_humerus chest
weapon_bone chest
Bip01_Head Bip01_Neck
eye_left_bone Bip01_Head
eye_right_bone Bip01_Head
L_forearm L_humerus
L_front_hand L_forearm
L_weapon_bone L_forearm
L_front_hand01_01 L_front_hand
L_front_hand02_01 L_front_hand
L_front_hand03_01 L_front_hand
L_front_hand01_02 L_front_hand01_01
L_front_hand02_02 L_front_hand02_01
L_front_hand03_02 L_front_hand03_01
R_forearm R_humerus
R_front_hand R_forearm
R_weapon_bone R_forearm
R_front_hand01_01 R_front_hand
R_front_hand02_01 R_front_hand
R_front_hand03_01 R_front_hand
R_front_hand01_02 R_front_hand01_01
R_front_hand02_02 R_front_hand02_01
R_front_hand03_02 R_front_hand03_01
null_rope01_connect L_mid_tent01
Rope1_Seg01 null_rope01_connect
Rope1_Seg02 Rope1_Seg01
Rope1_Seg03 Rope1_Seg02
Rope1_Seg04 Rope1_Seg03
Rope1_Seg05 Rope1_Seg04
Rope1_Seg06 Rope1_Seg05
Rope1_Seg07 Rope1_Seg06
Rope1_Seg09 Rope1_Seg07
L_mid_hand01 Rope1_Seg09
L_mid_hand02 Rope1_Seg09
L_mid_hand03 Rope1_Seg09
null_rope02_connect R_mid_tent01
Rope2_Seg01 null_rope02_connect
Rope2_Seg02 Rope2_Seg01
Rope2_Seg03 Rope2_Seg02
Rope2_Seg04 Rope2_Seg03
Rope2_Seg05 Rope2_Seg04
Rope2_Seg06 Rope2_Seg05
Rope2_Seg07 Rope2_Seg06
Rope2_Seg09 Rope2_Seg07
R_mid_hand01 Rope2_Seg09
R_mid_hand02 Rope2_Seg09
R_mid_hand03 Rope2_Seg09
spine02 spine01
spine03 spine02
pelvis spine03
null_rope03_connect pelvis
null_rope04_connect pelvis
Rope3_Seg01 null_rope03_connect
Rope3_Seg02 Rope3_Seg01
Rope3_Seg03 Rope3_Seg02
Rope3_Seg04 Rope3_Seg03
Rope3_Seg05 Rope3_Seg04
Rope3_Seg06 Rope3_Seg05
Rope3_Seg07 Rope3_Seg06
Rope3_Seg08 Rope3_Seg07
Rope3_Seg09 Rope3_Seg08
R_rear_hand01 Rope3_Seg09
R_rear_hand02 Rope3_Seg09
R_rear_hand03 Rope3_Seg09
Rope4_Seg01 null_rope04_connect
Rope4_Seg02 Rope4_Seg01
Rope4_Seg03 Rope4_Seg02
Rope4_Seg04 Rope4_Seg03
Rope4_Seg05 Rope4_Seg04
Rope4_Seg06 Rope4_Seg05
Rope4_Seg07 Rope4_Seg06
Rope4_Seg08 Rope4_Seg07
Rope4_Seg09 Rope4_Seg08
L_rear_hand01 Rope4_Seg09
L_rear_hand02 Rope4_Seg09
L_rear_hand03 Rope4_Seg09
[BasePosition]
#SegmentName Tx, Ty, Tz, Rx, Ry, Rz, BoneLength
MASTER 0.000000 0.000000 0.000000 -90.000000 0.000000 0.000000 10.000000 
root 0.000000 0.000000 0.000000 0.000000 0.000000 0.000000 10.000000 
chest 0.000000 0.000000 0.000000 0.000000 0.000000 0.000000 10.000000 
L_mid_tent01 0.000000 0.000000 0.000000 0.000000 0.000000 0.000000 10.000000 
R_mid_tent01 0.000000 0.000000 0.000000 0.000000 0.000000 0.000000 10.000000 
spine01 0.000000 0.000000 0.000000 0.000000 0.000000 0.000000 10.000000 
Bip01_Neck 0.000000 0.000000 0.000000 0.000000 0.000000 0.000000 10.000000 
L_humerus 0.000000 0.000000 0.000000 0.000000 0.000000 0.000000 10.000000 
R_humerus 0.000000 0.000000 0.000000 0.000000 0.000000 0.000000 10.000000 
weapon_bone 0.000000 0.000000 0.000000 0.000000 0.000000 0.000000 10.000000 
Bip01_Head 0.000000 0.000000 0.000000 0.000000 0.000000 0.000000 10.000000 
eye_left_bone 0.000000 0.000000 0.000000 0.000000 0.000000 0.000000 10.000000 
eye_right_bone 0.000000 0.000000 0.000000 0.000000 0.000000 0.000000 10.000000 
L_forearm 0.000000 0.000000 0.000000 0.000000 0.000000 0.000000 10.000000 
L_front_hand 0.000000 0.000000 0.000000 0.000000 0.000000 0.000000 10.000000 
L_weapon_bone 0.000000 0.000000 0.000000 0.000000 0.000000 0.000000 10.000000 
L_front_hand01_01 0.000000 0.000000 0.000000 0.000000 0.000000 0.000000 10.000000 
L_front_hand02_01 0.000000 0.000000 0.000000 0.000000 0.000000 0.000000 10.000000 
L_front_hand03_01 0.000000 0.000000 0.000000 0.000000 0.000000 0.000000 10.000000 
L_front_hand01_02 0.000000 0.000000 0.000000 0.000000 0.000000 0.000000 10.000000 
L_front_hand02_02 0.000000 0.000000 0.000000 0.000000 0.000000 0.000000 10.000000 
L_front_hand03_02 0.000000 0.000000 0.000000 0.000000 0.000000 0.000000 10.000000 
R_forearm 0.000000 0.000000 0.000000 0.000000 0.000000 0.000000 10.000000 
R_front_hand 0.000000 0.000000 0.000000 0.000000 0.000000 0.000000 10.000000 
R_weapon_bone 0.000000 0.000000 0.000000 0.000000 0.000000 0.000000 10.000000 
R_front_hand01_01 0.000000 0.000000 0.000000 0.000000 0.000000 0.000000 10.000000 
R_front_hand02_01 0.000000 0.000000 0.000000 0.000000 0.000000 0.000000 10.000000 
R_front_hand03_01 0.000000 0.000000 0.000000 0.000000 0.000000 0.000000 10.000000 
R_front_hand01_02 0.000000 0.000000 0.000000 0.000000 0.000000 0.000000 10.000000 
R_front_hand02_02 0.000000 0.000000 0.000000 0.000000 0.000000 0.000000 10.000000 
R_front_hand03_02 0.000000 0.000000 0.000000 0.000000 0.000000 0.000000 10.000000 
null_rope01_connect 0.000000 0.000000 0.000000 0.000000 0.000000 0.000000 10.000000 
Rope1_Seg01 0.000000 0.000000 0.000000 0.000000 0.000000 0.000000 10.000000 
Rope1_Seg02 0.000000 0.000000 0.000000 0.000000 0.000000 0.000000 10.000000 
Rope1_Seg03 0.000000 0.000000 0.000000 0.000000 0.000000 0.000000 10.000000 
Rope1_Seg04 0.000000 0.000000 0.000000 0.000000 0.000000 0.000000 10.000000 
Rope1_Seg05 0.000000 0.000000 0.000000 0.000000 0.000000 0.000000 10.000000 
Rope1_Seg06 0.000000 0.000000 0.000000 0.000000 0.000000 0.000000 10.000000 
Rope1_Seg07 0.000000 0.000000 0.000000 0.000000 0.000000 0.000000 10.000000 
Rope1_Seg09 0.000000 0.000000 0.000000 0.000000 0.000000 0.000000 10.000000 
L_mid_hand01 0.000000 0.000000 0.000000 0.000000 0.000000 0.000000 10.000000 
L_mid_hand02 0.000000 0.000000 0.000000 0.000000 0.000000 0.000000 10.000000 
L_mid_hand03 0.000000 0.000000 0.000000 0.000000 0.000000 0.000000 10.000000 
null_rope02_connect 0.000000 0.000000 0.000000 0.000000 0.000000 0.000000 10.000000 
Rope2_Seg01 0.000000 0.000000 0.000000 0.000000 0.000000 0.000000 10.000000 
Rope2_Seg02 0.000000 0.000000 0.000000 0.000000 0.000000 0.000000 10.000000 
Rope2_Seg03 0.000000 0.000000 0.000000 0.000000 0.000000 0.000000 10.000000 
Rope2_Seg04 0.000000 0.000000 0.000000 0.000000 0.000000 0.000000 10.000000 
Rope2_Seg05 0.000000 0.000000 0.000000 0.000000 0.000000 0.000000 10.000000 
Rope2_Seg06 0.000000 0.000000 0.000000 0.000000 0.000000 0.000000 10.000000 
Rope2_Seg07 0.000000 0.000000 0.000000 0.000000 0.000000 0.000000 10.000000 
Rope2_Seg09 0.000000 0.000000 0.000000 0.000000 0.000000 0.000000 10.000000 
R_mid_hand01 0.000000 0.000000 0.000000 0.000000 0.000000 0.000000 10.000000 
R_mid_hand02 0.000000 0.000000 0.000000 0.000000 0.000000 0.000000 10.000000 
R_mid_hand03 0.000000 0.000000 0.000000 0.000000 0.000000 0.000000 10.000000 
spine02 0.000000 0.000000 0.000000 0.000000 0.000000 0.000000 10.000000 
spine03 0.000000 0.000000 0.000000 0.000000 0.000000 0.000000 10.000000 
pelvis 0.000000 0.000000 0.000000 0.000000 0.000000 0.000000 10.000000 
null_rope03_connect 0.000000 0.000000 0.000000 0.000000 0.000000 0.000000 10.000000 
null_rope04_connect 0.000000 0.000000 0.000000 0.000000 0.000000 0.000000 10.000000 
Rope3_Seg01 0.000000 0.000000 0.000000 0.000000 0.000000 0.000000 10.000000 
Rope3_Seg02 0.000000 0.000000 0.000000 0.000000 0.000000 0.000000 10.000000 
Rope3_Seg03 0.000000 0.000000 0.000000 0.000000 0.000000 0.000000 10.000000 
Rope3_Seg04 0.000000 0.000000 0.000000 0.000000 0.000000 0.000000 10.000000 
Rope3_Seg05 0.000000 0.000000 0.000000 0.000000 0.000000 0.000000 10.000000 
Rope3_Seg06 0.000000 0.000000 0.000000 0.000000 0.000000 0.000000 10.000000 
Rope3_Seg07 0.000000 0.000000 0.000000 0.000000 0.000000 0.000000 10.000000 
Rope3_Seg08 0.000000 0.000000 0.000000 0.000000 0.000000 0.000000 10.000000 
Rope3_Seg09 0.000000 0.000000 0.000000 0.000000 0.000000 0.000000 10.000000 
R_rear_hand01 0.000000 0.000000 0.000000 0.000000 0.000000 0.000000 10.000000 
R_rear_hand02 0.000000 0.000000 0.000000 0.000000 0.000000 0.000000 10.000000 
R_rear_hand03 0.000000 0.000000 0.000000 0.000000 0.000000 0.000000 10.000000 
Rope4_Seg01 0.000000 0.000000 0.000000 0.000000 0.000000 0.000000 10.000000 
Rope4_Seg02 0.000000 0.000000 0.000000 0.000000 0.000000 0.000000 10.000000 
Rope4_Seg03 0.000000 0.000000 0.000000 0.000000 0.000000 0.000000 10.000000 
Rope4_Seg04 0.000000 0.000000 0.000000 0.000000 0.000000 0.000000 10.000000 
Rope4_Seg05 0.000000 0.000000 0.000000 0.000000 0.000000 0.000000 10.000000 
Rope4_Seg06 0.000000 0.000000 0.000000 0.000000 0.000000 0.000000 10.000000 
Rope4_Seg07 0.000000 0.000000 0.000000 0.000000 0.000000 0.000000 10.000000 
Rope4_Seg08 0.000000 0.000000 0.000000 0.000000 0.000000 0.000000 10.000000 
Rope4_Seg09 0.000000 0.000000 0.000000 0.000000 0.000000 0.000000 10.000000 
L_rear_hand01 0.000000 0.000000 0.000000 0.000000 0.000000 0.000000 10.000000 
L_rear_hand02 0.000000 0.000000 0.000000 0.000000 0.000000 0.000000 10.000000 
L_rear_hand03 0.000000 0.000000 0.000000 0.000000 0.000000 0.000000 10.000000 
#Beginning of Data. Separated by tabs
#Fr	Tx	Ty	Tz	Rx	Ry	Rz	SF
[MASTER]
30 0.000000 0.000000 0.000000 0.001660 0.001660 0.001660 0.000000
31 0.000000 0.000000 0.000000 0.001660 0.001660 0.001660 0.000000
[root]
30 -22.558681 25.517942 1463.592041 -91.719421 -16.388784 -85.214119 1463.988403
31 -16.502302 9.364097 1448.320068 -91.728874 -11.580058 -89.476219 1448.444336
[chest]
30 -84.512650 -34.090519 0.000000 -2.711564 0.270562 170.338608 91.129311
31 -84.512650 -34.090519 0.000000 -2.170494 -0.006436 168.239609 91.129311
[L_mid_tent01]
30 27.299099 22.179111 -249.918945 -21.143803 16.148247 14.099892 252.381927
31 27.299099 22.179106 -249.918961 -20.661398 12.026046 12.983024 252.381943
[R_mid_tent01]
30 23.228794 24.509907 226.238495 -167.921158 -18.606211 29.227852 228.744751
31 23.228794 24.509907 226.238495 -165.192215 -17.956036 24.056789 228.744751
[spine01]
30 -0.361383 -0.195265 0.000000 -0.000953 -0.000642 22.061928 0.410763
31 -0.361383 -0.195265 0.000000 0.001947 0.001312 22.051847 0.410763
[Bip01_Neck]
30 165.484543 71.581718 0.000119 175.896118 1.177290 24.871183 180.302734
31 165.484543 71.581718 0.000119 175.896118 1.177290 24.871187 180.302734
[L_humerus]
30 -13.983130 -135.272980 -120.471481 -5.468778 68.839714 84.586105 181.680161
31 -13.983130 -135.272980 -120.471481 -5.480137 68.873428 84.573517 181.680161
[R_humerus]
30 -13.983309 -135.273102 125.287651 22.408007 -77.157234 71.177467 184.909012
31 -13.983309 -135.273102 125.287651 27.897175 -69.888847 67.752357 184.909012
[weapon_bone]
30 235.964890 -300.705902 0.000000 0.000000 -89.951546 -128.212341 382.234833
31 235.964890 -300.705902 0.000000 0.000000 -89.951546 -128.212341 382.234833
[Bip01_Head]
30 253.629837 136.870056 -7.053277 -0.379061 6.247533 -62.067085 288.290222
31 254.794388 132.662659 -6.834755 2.248029 5.843378 -62.458359 287.343475
[eye_left_bone]
30 -0.854668 120.512154 -58.105907 0.000000 -90.000000 -99.840431 133.791641
31 -1.108703 120.564949 -58.177063 0.000000 -90.000000 -99.840431 133.871979
[eye_right_bone]
30 -0.850166 120.510521 70.994301 0.000000 -89.965736 80.156380 139.870300
31 -1.104278 120.563423 70.923103 0.000000 -90.000000 80.156387 139.881546
[L_forearm]
30 322.776093 0.000000 -0.000119 0.000396 -0.002314 -109.432098 322.776093
31 322.776093 0.000000 -0.000119 0.000396 -0.002314 -109.419975 322.776093
[L_front_hand]
30 241.149185 -0.042021 -3.300071 -178.667953 -1.835447 -27.422350 241.171753
31 241.149185 -0.042021 -3.300071 -178.667953 -1.835448 -27.422352 241.171753
[L_weapon_bone]
30 156.183838 0.000000 0.000000 0.000014 0.000007 0.000001 156.183838
31 156.183838 0.000000 0.000000 0.000014 0.000007 0.000001 156.183838
[L_front_hand01_01]
30 86.095154 20.947098 -0.655860 -0.366594 -0.477154 75.385574 88.609184
31 86.095154 20.947098 -0.655860 -0.366594 -0.477154 75.385582 88.609184
[L_front_hand02_01]
30 86.935165 -11.437475 24.513514 154.403519 -59.888931 -61.371990 91.046425
31 86.935165 -11.437475 24.513514 154.403534 -59.888950 -61.372017 91.046425
[L_front_hand03_01]
30 86.637497 -14.123976 -20.424902 -153.913849 58.118122 -62.702866 90.126129
31 86.637497 -14.123976 -20.424902 -153.913864 58.118141 -62.702885 90.126129
[L_front_hand01_02]
30 71.020905 -0.000179 0.000030 0.000334 -0.002323 -106.379684 71.020905
31 71.020905 -0.000179 0.000030 0.000334 -0.002323 -106.379700 71.020905
[L_front_hand02_02]
30 71.020927 -0.000119 0.000060 0.000334 -0.002323 -106.379684 71.020927
31 71.020927 -0.000119 0.000060 0.000334 -0.002323 -106.379700 71.020927
[L_front_hand03_02]
30 71.020905 -0.000060 0.000060 0.000334 -0.002323 -106.379684 71.020905
31 71.020905 -0.000060 0.000060 0.000334 -0.002323 -106.379700 71.020905
[R_forearm]
30 322.776428 -0.000060 0.000030 0.203873 0.055853 -106.712677 322.776428
31 322.776428 -0.000060 0.000030 0.202103 0.065158 -108.062820 322.776428
[R_front_hand]
30 238.847015 -0.006795 2.210259 3.841281 2.936018 -48.949257 238.857239
31 238.847015 -0.006795 2.210259 -1.531694 0.790216 -51.443054 238.857239
[R_weapon_bone]
30 155.664093 0.002503 -0.000030 0.003487 0.001180 -90.988930 155.664078
31 155.664093 0.002503 -0.000030 0.003487 0.001180 -90.988930 155.664078
[R_front_hand01_01]
30 87.624611 14.231146 22.918642 -154.633499 -59.950619 61.746044 91.683487
31 87.624611 14.231146 22.918642 -154.633499 -59.950634 61.746063 91.683487
[R_front_hand02_01]
30 89.356956 14.367283 -19.491137 154.602661 58.302849 63.744389 92.579636
31 89.356956 14.367283 -19.491137 154.602676 58.302864 63.744400 92.579636
[R_front_hand03_01]
30 87.286232 -22.307278 -0.143439 0.162155 -0.423168 -75.767921 90.091743
31 87.286232 -22.307278 -0.143439 0.162155 -0.423168 -75.767921 90.091743
[R_front_hand01_02]
30 71.020905 0.000060 0.000119 0.002323 -0.000334 106.381714 71.020905
31 71.020905 0.000060 0.000119 0.002323 -0.000334 106.381729 71.020905
[R_front_hand02_02]
30 71.020844 -0.000030 -0.000119 0.002323 -0.000334 106.381714 71.020836
31 71.020844 -0.000030 -0.000119 0.002323 -0.000334 106.381729 71.020836
[R_front_hand03_02]
30 71.020905 0.000000 0.000030 0.002323 -0.000334 106.381714 71.020905
31 71.020905 0.000000 0.000030 0.002323 -0.000334 106.381729 71.020905
[null_rope01_connect]
30 328.732483 0.000000 -0.000238 -151.209473 -64.618805 -118.433327 328.732483
31 328.732483 0.000000 -0.000238 -154.483353 -64.791336 -118.914322 328.732483
[Rope1_Seg01]
30 0.000072 -0.000039 0.000148 47.172405 5.140451 -119.677742 0.000169
31 0.000076 -0.000038 0.000153 49.222675 8.769243 -120.358955 0.000175
[Rope1_Seg02]
30 139.999863 -0.000179 0.000000 0.248044 1.558937 -1.874525 139.999863
31 139.999863 -0.000179 0.000000 -11.842375 2.663401 2.023323 139.999863
[Rope1_Seg03]
30 139.999924 0.000060 -0.000060 -2.209212 1.998417 -1.382525 139.999924
31 139.999924 0.000060 -0.000060 -11.298516 2.224160 2.515804 139.999924
[Rope1_Seg04]
30 139.999924 -0.000060 -0.000119 -9.052480 2.915490 -0.234076 139.999924
31 139.999924 -0.000060 -0.000119 -14.232508 2.604740 4.149426 139.999924
[Rope1_Seg05]
30 139.999832 0.000119 -0.000060 33.664589 -0.501526 -7.140153 139.999832
31 139.999832 0.000119 -0.000060 0.139839 -0.211206 0.164610 139.999832
[Rope1_Seg06]
30 139.999954 0.000119 -0.000060 45.849068 -6.428647 -6.322376 139.999954
31 139.999954 0.000119 -0.000060 13.166629 -1.824129 -4.078393 139.999954
[Rope1_Seg07]
30 139.999985 0.000060 0.000000 14.119752 -5.147927 -0.282151 139.999985
31 139.999985 0.000060 0.000000 9.018118 -1.725446 -2.198550 139.999985
[Rope1_Seg09]
30 121.602913 0.000119 -0.000089 -89.793175 -1.359789 0.847147 121.602913
31 121.602913 0.000119 -0.000089 -89.793175 -1.359789 0.847147 121.602913
[L_mid_hand01]
30 103.859421 1.038730 8.195221 114.520287 -53.310486 -20.623234 104.187431
31 103.859421 1.038730 8.195221 114.520309 -53.310497 -20.623243 104.187431
[L_mid_hand02]
30 105.572853 -4.139662 -10.864139 -155.067673 38.166626 -52.448818 106.211075
31 105.572853 -4.139662 -10.864139 -155.067673 38.166637 -52.448830 106.211075
[L_mid_hand03]
30 104.641464 17.579376 -3.913581 -10.970130 15.317461 57.626949 106.179977
31 104.641464 17.579376 -3.913581 -10.970134 15.317465 57.626957 106.179977
[null_rope02_connect]
30 328.732849 0.000179 -0.000119 -126.996574 65.822166 -21.412613 328.732849
31 328.732849 0.000179 -0.000119 -140.208801 68.099243 -35.150642 328.732849
[Rope2_Seg01]
30 0.000095 0.000153 0.000074 118.666367 21.617374 -63.300583 0.000194
31 0.000095 0.000153 0.000076 87.273888 10.941136 -60.195648 0.000195
[Rope2_Seg02]
30 139.999741 -0.000060 -0.000119 -12.990808 4.628793 2.239400 139.999756
31 139.999741 -0.000060 -0.000119 7.968884 -3.913509 -1.674902 139.999756
[Rope2_Seg03]
30 140.000107 0.000030 0.000000 -15.831047 3.186935 3.505351 140.000107
31 140.000107 0.000030 0.000000 5.401708 -4.946515 -0.623334 140.000107
[Rope2_Seg04]
30 139.999802 0.000000 -0.000060 -15.591496 1.991545 4.098474 139.999802
31 139.999802 0.000000 -0.000060 2.945682 -3.086378 -0.364761 139.999802
[Rope2_Seg05]
30 139.999985 -0.000060 0.000119 -15.828274 4.745549 2.000427 139.999985
31 139.999985 -0.000060 0.000119 -0.650771 4.617472 -1.816468 139.999985
[Rope2_Seg06]
30 139.999893 -0.000030 -0.000119 -15.658115 3.554119 1.830421 139.999893
31 139.999893 -0.000030 -0.000119 -1.390565 4.042704 -1.304521 139.999893
[Rope2_Seg07]
30 139.999893 0.000060 -0.000060 -10.897264 1.286786 1.752076 139.999893
31 139.999893 0.000060 -0.000060 -0.385973 1.458906 -0.532492 139.999893
[Rope2_Seg09]
30 121.338966 0.000089 -0.000060 136.879395 0.546403 -1.506368 121.338966
31 121.338966 0.000089 -0.000060 136.879395 0.546403 -1.506368 121.338966
[R_mid_hand01]
30 104.680779 11.144459 -10.335981 -39.248650 29.171114 33.551922 105.778534
31 104.680779 11.144459 -10.335981 -39.248657 29.171120 33.551929 105.778534
[R_mid_hand02]
30 104.070427 2.443552 8.231699 71.586517 -38.253605 12.182658 104.424065
31 104.070427 2.443552 8.231699 71.586533 -38.253620 12.182662 104.424065
[R_mid_hand03]
30 106.028137 -11.221827 -5.996406 -168.987167 11.419018 -42.774643 106.788818
31 106.028137 -11.221827 -5.996406 -168.987167 11.419020 -42.774647 106.788818
[spine02]
30 129.756927 0.001550 0.000119 0.362581 -4.994611 -12.110666 129.756927
31 129.756927 0.001550 0.000119 0.360061 -4.044798 -12.915060 129.756927
[spine03]
30 78.614044 0.081487 -4.899006 1.896996 3.831039 16.488060 78.766579
31 78.614044 0.081482 -4.899006 1.896495 3.831288 16.473051 78.766579
[pelvis]
30 169.435242 0.051022 0.000000 -0.060489 -0.180217 14.102879 169.435257
31 169.435242 0.051022 0.000000 -0.060465 -0.180225 14.087932 169.435257
[null_rope03_connect]
30 -1.257226 -2.466202 137.391083 96.700783 -84.570786 -30.824709 137.418976
31 -1.257226 -2.466202 137.391083 156.712067 -89.388023 -94.813202 137.418976
[null_rope04_connect]
30 -1.259640 -2.480268 -137.844437 96.700783 -84.570786 -30.824709 137.872513
31 -1.259640 -2.480268 -137.844437 156.712067 -89.388023 -94.813202 137.872513
[Rope3_Seg01]
30 0.000000 0.000000 0.000000 -123.727379 24.257912 -58.212219 0.000000
31 0.000000 0.000000 0.000000 -125.191902 29.320805 -62.408539 0.000000
[Rope3_Seg02]
30 139.999924 -0.000119 0.000060 -0.370381 4.710482 1.184368 139.999924
31 139.999924 -0.000119 0.000060 0.291796 7.707376 4.305091 139.999924
[Rope3_Seg03]
30 139.999924 -0.000119 0.000119 -0.138856 4.812528 1.485871 139.999924
31 139.999924 -0.000119 0.000119 0.758514 7.210970 3.826311 139.999924
[Rope3_Seg04]
30 139.999924 0.000119 0.000000 0.326370 7.388748 4.181726 139.999924
31 139.999924 0.000119 0.000000 2.171071 10.691272 3.742745 139.999924
[Rope3_Seg05]
30 139.999924 -0.000238 0.000060 0.247296 0.654049 -2.029687 139.999924
31 139.999924 -0.000238 0.000060 0.297424 1.806652 2.128445 139.999924
[Rope3_Seg06]
30 139.999893 -0.000119 -0.000060 0.894776 -6.308968 -8.262233 139.999893
31 139.999893 -0.000119 -0.000060 -2.171924 -7.671152 1.069431 139.999893
[Rope3_Seg07]
30 139.999771 0.000060 -0.000119 0.771024 -4.179836 -5.735042 139.999771
31 139.999771 0.000060 -0.000119 -1.530204 -8.100430 0.486868 139.999771
[Rope3_Seg08]
30 139.999985 -0.000060 0.000000 0.595000 -2.222765 -3.289923 139.999985
31 139.999985 -0.000060 0.000000 -0.216490 -3.479729 0.503034 139.999985
[Rope3_Seg09]
30 90.185997 -0.000179 -0.000060 159.792526 -1.358243 -0.846482 90.185997
31 90.185997 -0.000179 -0.000060 159.792526 -1.358243 -0.846482 90.185997
[R_rear_hand01]
30 103.366196 -6.073594 -10.757982 -177.714203 24.565960 -73.910950 104.101845
31 103.366196 -6.073594 -10.757982 -177.714203 24.565968 -73.910957 104.101845
[R_rear_hand02]
30 100.509819 12.039542 -7.992327 -12.874829 36.868488 72.167213 101.543350
31 100.509819 12.039542 -7.992327 -12.874833 36.868492 72.167229 101.543350
[R_rear_hand03]
30 101.539970 5.215704 5.435467 71.484581 -71.816628 21.513813 101.819031
31 101.539970 5.215704 5.435467 71.484634 -71.816643 21.513817 101.819031
[Rope4_Seg01]
30 -0.000010 -0.000003 -0.000153 56.003983 23.340364 -78.967682 0.000153
31 -0.000010 0.000000 -0.000153 50.501717 31.984991 -99.239937 0.000153
[Rope4_Seg02]
30 139.999985 0.000060 0.000119 2.064702 -6.535174 -7.771659 139.999985
31 139.999985 0.000060 0.000119 0.181119 -7.400067 -3.157522 139.999985
[Rope4_Seg03]
30 139.999924 0.000000 -0.000238 1.364967 -7.807750 -7.950299 139.999924
31 139.999924 0.000000 -0.000238 0.189850 -6.027295 -2.351051 139.999924
[Rope4_Seg04]
30 139.999985 0.000000 0.000119 0.667516 -7.404655 -7.287156 139.999985
31 139.999985 0.000000 0.000119 0.379573 -7.109457 -1.934734 139.999985
[Rope4_Seg05]
30 139.999802 -0.000060 -0.000119 -0.059166 1.944602 -2.126405 139.999802
31 139.999802 -0.000060 -0.000119 -0.044829 -0.785205 -1.155373 139.999802
[Rope4_Seg06]
30 139.999924 0.000000 0.000060 0.081582 3.390333 -0.475871 139.999924
31 139.999924 0.000000 0.000060 -0.363911 4.402504 -0.626048 139.999924
[Rope4_Seg07]
30 139.999802 0.000000 0.000000 0.159916 1.096216 -1.035455 139.999802
31 139.999802 0.000000 0.000000 -0.149901 4.715701 -0.435152 139.999802
[Rope4_Seg08]
30 139.999924 0.000000 0.000119 -1.427159 0.725123 -0.689944 139.999924
31 139.999924 0.000000 0.000119 -1.528386 1.871012 -0.399255 139.999924
[Rope4_Seg09]
30 90.185791 0.000060 0.000060 -135.617828 2.228885 0.850567 90.185791
31 90.185791 0.000060 0.000060 -135.617828 2.228885 0.850567 90.185791
[L_rear_hand01]
30 101.696655 -8.392275 -7.654577 -19.915020 -33.950905 119.950104 102.329041
31 101.696655 -8.392275 -7.654577 -19.915020 -33.950905 119.950104 102.329041
[L_rear_hand02]
30 102.726799 -1.568258 5.773216 77.862221 61.878510 165.399200 102.900848
31 102.726799 -1.568258 5.773216 77.862274 61.878551 165.399200 102.900848
[L_rear_hand03]
30 104.552910 9.721220 -10.420293 -173.099182 -23.740307 -117.327896 105.519653
31 104.552910 9.721220 -10.420293 -173.099197 -23.740316 -117.327911 105.519653
